<?xml version="1.0" encoding="utf-8"?>
<!-- Generator: Adobe Illustrator 23.0.1, SVG Export Plug-In . SVG Version: 6.00 Build 0)  -->
<svg version="1.1" id="Layer_1" xmlns="http://www.w3.org/2000/svg" xmlns:xlink="http://www.w3.org/1999/xlink" x="0px" y="0px"
	 viewBox="0 0 1987 578" style="enable-background:new 0 0 1987 578;" xml:space="preserve">
<style type="text/css">
	.st0{fill:#343D3A;}
	.st1{fill:#ED365B;}
</style>
<g>
	<path class="st0" d="M1111.16,500.63v23.31h-2.14l-0.05-22.82c0-7.73-4.17-12.79-10.53-12.79c-7.34,0-12.44,5.69-12.49,14.01v21.6
		h-2.16v-22.82c0-7.84-4.12-12.79-10.55-12.79c-7.34,0-12.44,5.69-12.49,14.01v21.6h-2.19V487h1.74l0.35,7.53
		c2.32-5.12,7.05-8.25,12.95-8.25c5.91,0,10.24,3.65,11.76,9.46c2.08-5.83,7.07-9.46,13.4-9.46
		C1106.21,486.28,1111.16,492.06,1111.16,500.63z"/>
	<path class="st0" d="M1157.38,506.14h-34.49c0.33,9.45,7.22,16.37,16.36,16.37c6.51,0,11.72-3.39,14.68-9.1h2.33
		c-3.49,7.31-9.44,11.26-17,11.26c-10.54,0-18.52-8.28-18.52-19.24c0-10.86,7.99-19.14,18.52-19.14c10.62,0,18.17,8.28,18.17,18.94
		C1157.41,505.51,1157.39,505.85,1157.38,506.14z M1122.92,504.07h32.33c-0.56-9.35-7.33-15.68-16.01-15.68
		C1130.31,488.38,1123.53,494.98,1122.92,504.07z"/>
	<path class="st0" d="M1201.77,473.95v50h-1.83l-0.31-9.42c-3.01,6.12-9.13,10.14-16.76,10.14c-10.79,0-18.83-8.28-18.83-19.19
		c0-10.93,8.04-19.19,18.83-19.19c7.59,0,13.68,3.96,16.71,10.03v-22.36H1201.77z M1199.69,505.47c0-9.83-7.05-17.05-16.69-17.05
		c-9.55,0-16.73,7.3-16.73,17.05c0,9.7,7.18,17.05,16.73,17.05C1192.64,522.52,1199.69,515.29,1199.69,505.47z"/>
	<path class="st0" d="M1214.7,474.97h3.22v3.82h-3.22V474.97z M1215.21,487h2.19v36.95h-2.19V487z"/>
	<path class="st0" d="M1265.46,487v36.95h-1.91l-0.24-9.65c-2.96,6.25-9.12,10.36-16.86,10.36c-10.74,0-18.85-8.28-18.85-19.19
		c0-10.93,8.11-19.19,18.85-19.19c7.75,0,13.91,4.11,16.87,10.37l0.28-9.66H1265.46z M1263.24,505.47c0-9.85-7.03-17.06-16.68-17.06
		c-9.55,0-16.75,7.37-16.75,17.06c0,9.73,7.2,17.05,16.75,17.05C1256.21,522.53,1263.24,515.32,1263.24,505.47z"/>
	<path class="st0" d="M1314.8,521.88v2.09h-4.84c-6.88,0-11.07-4.24-11.07-11.24V489h-8.52v-1.93h8.52v-10.93h2.19v10.93h13.41V489
		h-13.41v23.64c0,5.83,3.3,9.24,9.07,9.24H1314.8z"/>
	<path class="st0" d="M1355.35,506.14h-34.49c0.33,9.45,7.22,16.37,16.36,16.37c6.51,0,11.72-3.39,14.68-9.1h2.33
		c-3.49,7.31-9.44,11.26-17,11.26c-10.54,0-18.52-8.28-18.52-19.24c0-10.86,7.99-19.14,18.52-19.14c10.62,0,18.17,8.28,18.17,18.94
		C1355.38,505.51,1355.36,505.85,1355.35,506.14z M1320.89,504.07h32.33c-0.56-9.35-7.33-15.68-16.01-15.68
		C1328.28,488.38,1321.5,494.98,1320.89,504.07z"/>
	<path class="st0" d="M1362.01,505.47c0-11.01,8.18-19.19,18.97-19.19c8.18,0,14.59,4.62,17.19,11.63h-2.22
		c-2.58-5.92-8.21-9.49-14.97-9.49c-9.58,0-16.74,7.34-16.74,17.05c0,9.67,7.24,17.06,16.74,17.06c6.71,0,12.3-3.52,15.05-9.6h2.26
		c-2.76,7.2-9.3,11.73-17.31,11.73C1370.24,524.66,1362.01,516.38,1362.01,505.47z"/>
	<path class="st0" d="M1438.72,502.08v21.86h-2.19v-21.49c0-8.81-4.79-14.13-12.71-14.13c-7.54,0-13.99,6.48-13.99,14.09v21.52
		h-2.19v-50h2.19v21.41c2.55-5.36,8.11-9.08,14.4-9.08C1433.14,486.28,1438.72,492.4,1438.72,502.08z"/>
	<path class="st0" d="M1482.57,502.08v21.86h-2.19v-21.49c0-8.81-4.79-14.13-12.71-14.13c-7.54,0-13.99,6.48-13.99,14.09v21.52
		h-2.19V487h1.73l0.39,8.52c2.52-5.45,8.12-9.24,14.47-9.24C1476.99,486.28,1482.57,492.56,1482.57,502.08z"/>
	<path class="st0" d="M1492.05,505.47c0-11.05,8.26-19.19,19.23-19.19c11.01,0,19.23,8.21,19.23,19.19
		c0,10.98-8.21,19.19-19.23,19.19C1500.31,524.66,1492.05,516.45,1492.05,505.47z M1528.28,505.47c0-9.77-7.24-17.05-17-17.05
		s-17,7.24-17,17.05c0,9.77,7.29,17.06,17,17.06C1521.04,522.53,1528.28,515.24,1528.28,505.47z"/>
	<path class="st0" d="M1540.69,473.95h2.19v50h-2.19V473.95z"/>
	<path class="st0" d="M1553.07,505.47c0-11.05,8.26-19.19,19.23-19.19c11.01,0,19.23,8.21,19.23,19.19
		c0,10.98-8.21,19.19-19.23,19.19C1561.33,524.66,1553.07,516.45,1553.07,505.47z M1589.3,505.47c0-9.77-7.24-17.05-17-17.05
		s-17,7.24-17,17.05c0,9.77,7.29,17.06,17,17.06C1582.06,522.53,1589.3,515.24,1589.3,505.47z"/>
	<path class="st0" d="M1634.53,487v31.51c0,11.96-6.61,19.21-17.48,19.21c-8.24,0-14.08-4.17-16.37-11.29h2.19
		c2.19,5.93,7.39,9.24,14.18,9.24c9.48,0,15.33-6.31,15.33-16.95v-5.63c-2.9,5.8-8.77,9.55-15.91,9.55
		c-10.21,0-17.99-7.83-17.99-18.17c0-10.28,7.83-18.18,17.99-18.18c7.25,0,13.24,3.97,16.09,10l0.32-9.28H1634.53z M1632.36,504.46
		c0-9.22-6.69-16.06-15.72-16.06c-9.08,0-15.94,6.96-15.94,16.06c0,9.14,6.86,16.05,15.94,16.05
		C1625.72,520.51,1632.36,513.71,1632.36,504.46z"/>
	<path class="st0" d="M1678.75,487l-18.83,40.19c-3.57,7.66-6.77,9.8-12.66,9.8h-2.89v-2.04h2.75c5.08,0,7.59-1.56,10.79-8.36
		l2.23-4.71L1642.9,487h2.43l15.98,32.44l15.1-32.44H1678.75z"/>
	<path class="st0" d="M1701.03,505.47c0-11.01,8.18-19.19,18.97-19.19c8.18,0,14.59,4.62,17.19,11.63h-2.22
		c-2.58-5.92-8.21-9.49-14.97-9.49c-9.58,0-16.74,7.34-16.74,17.05c0,9.67,7.24,17.06,16.74,17.06c6.71,0,12.3-3.52,15.05-9.6h2.26
		c-2.76,7.2-9.3,11.73-17.31,11.73C1709.26,524.66,1701.03,516.38,1701.03,505.47z"/>
	<path class="st0" d="M1780.08,506.14h-34.49c0.33,9.45,7.22,16.37,16.36,16.37c6.51,0,11.72-3.39,14.68-9.1h2.33
		c-3.49,7.31-9.44,11.26-17,11.26c-10.54,0-18.52-8.28-18.52-19.24c0-10.86,7.99-19.14,18.52-19.14c10.62,0,18.17,8.28,18.17,18.94
		C1780.12,505.51,1780.1,505.85,1780.08,506.14z M1745.63,504.07h32.33c-0.56-9.35-7.33-15.68-16.01-15.68
		C1753.01,488.38,1746.24,494.98,1745.63,504.07z"/>
	<path class="st0" d="M1821.11,502.08v21.86h-2.19v-21.49c0-8.81-4.79-14.13-12.71-14.13c-7.54,0-13.99,6.48-13.99,14.09v21.52
		h-2.19V487h1.73l0.39,8.52c2.52-5.45,8.12-9.24,14.47-9.24C1815.53,486.28,1821.11,492.56,1821.11,502.08z"/>
	<path class="st0" d="M1851.86,521.88v2.09h-4.84c-6.88,0-11.07-4.24-11.07-11.24V489h-8.52v-1.93h8.52v-10.93h2.19v10.93h13.41V489
		h-13.41v23.64c0,5.83,3.3,9.24,9.07,9.24H1851.86z"/>
	<path class="st0" d="M1892.41,506.14h-34.49c0.33,9.45,7.22,16.37,16.36,16.37c6.51,0,11.72-3.39,14.68-9.1h2.33
		c-3.49,7.31-9.44,11.26-17,11.26c-10.54,0-18.52-8.28-18.52-19.24c0-10.86,7.99-19.14,18.52-19.14c10.62,0,18.17,8.28,18.17,18.94
		C1892.44,505.51,1892.42,505.85,1892.41,506.14z M1857.95,504.07h32.33c-0.56-9.35-7.33-15.68-16.01-15.68
		C1865.34,488.38,1858.56,494.98,1857.95,504.07z"/>
	<path class="st0" d="M1920.74,486.89V489h-3.32c-7.71,0-12.88,5.97-12.88,14.14v20.8h-2.19V487h1.73l0.36,8.37
		c2.3-5.19,6.88-8.47,13.12-8.47H1920.74z"/>
</g>
<path class="st0" d="M1114.81,426.92l-28.44-209.9L989.7,427.52h-29.66l-96.62-210.41l-28.04,209.81H733.63l55.12-364.47h100.27
	l85.83,198.32l86.39-198.32h100.26l54.61,364.47H1114.81z"/>
<path class="st0" d="M1525.43,152.86h-99.01v274.06h-100.85V152.86h-99.01V62.45h298.87V152.86z"/>
<path class="st0" d="M1735.64,436.14c-110.93,0-193.78-82.13-193.78-191.15c0-109.63,82.85-191.75,193.78-191.75
	c95.52,0,169.5,63.05,184.31,155.46h-101.73c-12.51-37.38-44-61.65-82.36-61.65c-51.61,0-89.46,41.5-89.46,97.93
	c0,56.22,37.85,97.12,89.46,97.12c40.44,0,72.23-26.35,82.44-66.85H1921C1907.14,371.09,1832.72,436.14,1735.64,436.14
	L1735.64,436.14z"/>
<polygon class="st1" points="447.06,426.15 389.41,426.15 398.18,368.49 455.83,368.49 "/>
<polygon class="st1" points="95.65,426.15 38,426.15 46.77,368.49 104.42,368.49 "/>
<polygon class="st1" points="553.77,120.48 724.87,120.48 733.63,63.45 562.54,63.45 "/>
<polygon class="st1" points="530.85,275.66 701.95,275.66 710.71,218.62 539.62,218.62 "/>
<polygon class="st1" points="321.02,120.48 492.11,120.48 500.88,63.45 329.78,63.45 "/>
<polygon class="st1" points="508.63,425.53 679.72,425.53 688.49,368.49 517.4,368.49 "/>
<polygon class="st1" points="156.75,425.53 327.84,425.53 336.61,368.49 165.52,368.49 "/>
</svg>
